<svg width="45" height="45" viewBox="0 0 45 45" fill="none" xmlns="http://www.w3.org/2000/svg">
<g clip-path="url(#clip0_24_46)">
<path opacity="0.931" fill-rule="evenodd" clip-rule="evenodd" d="M44.9561 17.8858C44.9561 18.1787 44.9561 18.4717 44.9561 18.7647C44.7915 19.0309 44.5571 19.2213 44.2529 19.336C43.1655 19.7521 42.0815 20.177 41.001 20.6104C40.8838 21.6064 40.8838 22.6026 41.001 23.5987C41.5627 23.6671 41.9582 23.9601 42.1875 24.4776C42.3171 27.4167 42.5661 30.3464 42.9346 33.2666C42.9195 33.7222 42.7143 34.0591 42.3193 34.2774C41.6214 34.374 40.9183 34.4179 40.21 34.4092C39.5017 34.4179 38.7985 34.374 38.1006 34.2774C37.7064 34.061 37.5013 33.724 37.4854 33.2666C37.8622 30.3765 38.1113 27.4761 38.2324 24.5655C38.4093 23.985 38.8048 23.6627 39.4189 23.5987C39.5361 22.8076 39.5361 22.0166 39.4189 21.2256C33.7776 23.4869 28.1232 25.7135 22.4561 27.9053C15.1814 25.0737 7.91584 22.2173 0.65918 19.336C0.354959 19.2213 0.120583 19.0309 -0.0439453 18.7647C-0.0439453 18.4717 -0.0439453 18.1787 -0.0439453 17.8858C0.0859036 17.683 0.261685 17.5219 0.483398 17.4024C7.43374 14.6657 14.3771 11.9117 21.3135 9.14063C21.6825 8.98488 22.0634 8.88231 22.4561 8.83301C22.9997 8.93118 23.5271 9.09229 24.0381 9.31641C30.8349 12.0118 37.6319 14.707 44.4287 17.4024C44.6505 17.5219 44.8262 17.683 44.9561 17.8858ZM22.3682 10.2393C29.1836 12.8852 35.9806 15.5806 42.7588 18.3252C41.8716 18.7174 40.9781 19.0983 40.0781 19.4678C34.0659 18.8006 28.0454 18.2001 22.0166 17.666C21.6014 17.88 21.4696 18.217 21.6211 18.6768C21.7278 18.8129 21.8596 18.9154 22.0166 18.9844C27.0828 19.5291 32.1512 20.0565 37.2217 20.5664C32.3028 22.5234 27.3809 24.4717 22.4561 26.4112C15.672 23.7496 8.90446 21.0543 2.15332 18.3252C8.89866 15.6256 15.6369 12.9303 22.3682 10.2393ZM39.5947 25.0049C40.0049 25.0049 40.415 25.0049 40.8252 25.0049C40.8252 25.3565 40.8252 25.708 40.8252 26.0596C40.415 26.0596 40.0049 26.0596 39.5947 26.0596C39.5947 25.708 39.5947 25.3565 39.5947 25.0049ZM39.5068 27.4658C39.9756 27.4658 40.4444 27.4658 40.9131 27.4658C41.1179 29.3087 41.2937 31.1544 41.4404 33.003C40.6201 33.003 39.7998 33.003 38.9795 33.003C39.1424 31.156 39.3181 29.3103 39.5068 27.4658Z" fill="#14C88C"/>
<path opacity="0.926" fill-rule="evenodd" clip-rule="evenodd" d="M34.8486 24.7412C35.4537 24.7163 35.7613 25.0092 35.7715 25.6201C36.0403 27.2038 36.3186 28.7859 36.6064 30.3662C36.5494 31.1125 36.1685 31.5959 35.4639 31.8164C31.0789 32.6433 26.8894 34.0495 22.8955 36.0352C22.5065 36.1047 22.1257 36.0753 21.7529 35.9473C17.77 33.9333 13.5805 32.527 9.18457 31.7285C8.72693 31.5031 8.44862 31.1368 8.34961 30.6299C8.57529 28.8362 8.86825 27.0491 9.22852 25.2686C9.57059 24.7624 9.98077 24.7038 10.459 25.0928C10.5401 25.2276 10.5841 25.3741 10.5908 25.5322C10.3261 27.15 10.0332 28.7613 9.71191 30.3662C14.1562 31.2263 18.4042 32.6618 22.4561 34.6729C26.5079 32.6618 30.7559 31.2263 35.2002 30.3662C34.8742 28.7475 34.5813 27.1215 34.3213 25.4883C34.317 25.0991 34.4928 24.85 34.8486 24.7412Z" fill="#14C88C"/>
</g>
<defs>
<clipPath id="clip0_24_46">
<rect width="45" height="45" fill="white"/>
</clipPath>
</defs>
</svg>
